<svg width="720" height="316" xmlns="http://www.w3.org/2000/svg"><g fill="#000105" fill-rule="evenodd"><path d="M66.214 15.5H31.45v17.328h30.164v14.227H31.45V66.31h34.87v14.654H14.87V.95h51.346V15.5M678.58 82.46L638.037.95h18.72l21.82 45.463L700.402.95h18.827L678.58 82.46M222.796 138.367c-4.6 4.707-6.846 11.125-6.846 19.362 0 8.128 2.246 14.546 6.846 19.36s10.59 7.167 17.97 7.167c7.38 0 13.264-2.353 17.757-7.167 4.6-4.814 6.846-11.232 6.846-19.36 0-8.238-2.247-14.656-6.847-19.363-4.493-4.813-10.376-7.166-17.757-7.166-7.38 0-13.37 2.354-17.97 7.167zm47.814-10.482c7.81 7.487 11.66 17.435 11.66 29.844 0 12.407-3.85 22.355-11.66 29.95-7.808 7.487-17.756 11.23-29.844 11.23-12.194 0-22.142-3.743-29.95-11.23-7.81-7.595-11.66-17.543-11.66-29.95 0-12.41 3.85-22.358 11.66-29.845 7.808-7.595 17.756-11.34 29.95-11.34 12.088 0 22.036 3.745 29.844 11.34zM467.237 183.08h34.87v14.655h-51.45v-80.013h16.58v65.358M40.54 316L0 234.49h18.72l21.82 45.462 21.823-45.462H81.19L40.54 316M704.252 249.038h-34.765v17.33h30.165v14.225h-30.165v19.255h34.872v14.654h-51.453V234.49h51.345v14.548"/></g></svg>
