<svg xmlns="http://www.w3.org/2000/svg" viewBox="0 0 487.7 487.7"><style>.a{fill:#fff;}</style><path d="M102.5 53.2H55.9v23.2h40.4v19.1H55.9v25.8h46.7V141h-69V33.7h68.8V53.2z" class="a"/><path d="M419.4 143L365.1 33.7h25.1l29.2 60.9 29.3-60.9h25.2L419.4 143z" class="a"/><path d="M213.5 203.8c10.5 10 15.6 23.4 15.6 40s-5.2 30-15.6 40.1c-10.5 10-23.8 15.1-40 15.1 -16.3 0-29.7-5-40.1-15.1 -10.5-10.2-15.6-23.5-15.6-40.1s5.2-30 15.6-40c10.5-10.2 23.8-15.2 40.1-15.2C189.7 188.7 203 193.7 213.5 203.8zM149.4 217.9c-6.2 6.3-9.2 14.9-9.2 26 0 10.9 3 19.5 9.2 26 6.2 6.5 14.2 9.6 24.1 9.6 9.9 0 17.8-3.2 23.8-9.6 6.2-6.5 9.2-15.1 9.2-26 0-11-3-19.6-9.2-26 -6-6.5-13.9-9.6-23.8-9.6C163.6 208.3 155.6 211.4 149.4 217.9z" class="a"/><path d="M330.1 277.8h46.7v19.6h-69V190.2h22.2V277.8z" class="a"/><path d="M68.1 456L13.8 346.7h25.1l29.2 60.9 29.3-60.9h25.2L68.1 456z" class="a"/><path d="M453.9 366.2h-46.6v23.2h40.4v19.1h-40.4v25.8H454V454h-69V346.7h68.8V366.2z" class="a"/></svg>
